<svg width="40" height="37" viewBox="0 0 40 37" fill="none" xmlns="http://www.w3.org/2000/svg">
<path d="M21.8748 1.875V5H24.3373C25.0973 5 25.8448 5.2 26.5048 5.5775L29.7298 7.4175C29.8248 7.4725 29.9298 7.5 30.0398 7.5H35.6248C36.1221 7.5 36.599 7.69754 36.9506 8.04917C37.3022 8.40081 37.4998 8.87772 37.4998 9.375C37.4998 9.87228 37.3022 10.3492 36.9506 10.7008C36.599 11.0525 36.1221 11.25 35.6248 11.25H34.5573L39.8348 22.98C39.9907 23.327 40.0374 23.7133 39.9687 24.0875C39.8999 24.4617 39.7189 24.8061 39.4498 25.075L38.1248 23.75L39.4473 25.0775L39.4448 25.0825L39.4398 25.0875L39.4248 25.1025L39.4098 25.115L39.3848 25.14L39.2723 25.24C38.7473 25.68 38.1698 26.0575 37.5573 26.365C36.3898 26.95 34.6998 27.5 32.4998 27.5C30.7486 27.5207 29.0167 27.132 27.4423 26.365C26.829 26.0577 26.2535 25.6801 25.7273 25.24L25.6148 25.14L25.5748 25.1025L25.5598 25.0875L25.5498 25.0775V25.075C25.2806 24.8061 25.0997 24.4617 25.0309 24.0875C24.9621 23.7133 25.0088 23.327 25.1648 22.98L30.4448 11.25H30.0398C29.2773 11.25 28.5298 11.0525 27.8698 10.6725L24.6448 8.8325C24.5506 8.77795 24.4436 8.74947 24.3348 8.75H21.8748V32.5H28.1248C28.622 32.5 29.099 32.6975 29.4506 33.0492C29.8022 33.4008 29.9998 33.8777 29.9998 34.375C29.9998 34.8723 29.8022 35.3492 29.4506 35.7008C29.099 36.0525 28.622 36.25 28.1248 36.25H11.8748C11.3775 36.25 10.9006 36.0525 10.5489 35.7008C10.1973 35.3492 9.99977 34.8723 9.99977 34.375C9.99977 33.8777 10.1973 33.4008 10.5489 33.0492C10.9006 32.6975 11.3775 32.5 11.8748 32.5H18.1248V8.75H15.6648C15.5559 8.74947 15.4489 8.77795 15.3548 8.8325L12.1323 10.675C11.4698 11.05 10.7223 11.25 9.95977 11.25H9.55477L14.8348 22.98C14.9907 23.327 15.0374 23.7133 14.9687 24.0875C14.8999 24.4617 14.7189 24.8061 14.4498 25.075L13.1248 23.75L14.4473 25.0775L14.4448 25.0825L14.4398 25.0875L14.4248 25.1025L14.3848 25.14L14.2723 25.24C13.7473 25.68 13.1698 26.0575 12.5573 26.365C11.3898 26.95 9.69977 27.5 7.49977 27.5C5.74855 27.5207 4.01671 27.132 2.44227 26.365C1.82898 26.0577 1.25345 25.6801 0.727267 25.24L0.614767 25.14L0.574767 25.1025L0.559767 25.0875L0.549767 25.0775V25.075C0.280621 24.8061 0.0996481 24.4617 0.0308822 24.0875C-0.0378836 23.7133 0.00881162 23.327 0.164767 22.98L5.44477 11.25H4.37477C3.87749 11.25 3.40057 11.0525 3.04894 10.7008C2.69731 10.3492 2.49977 9.87228 2.49977 9.375C2.49977 8.87772 2.69731 8.40081 3.04894 8.04917C3.40057 7.69754 3.87749 7.5 4.37477 7.5H9.95977C10.0694 7.50049 10.1772 7.47203 10.2723 7.4175L13.4923 5.575C14.1548 5.2 14.9023 5 15.6648 5H18.1248V1.875C18.1248 1.37772 18.3223 0.900805 18.6739 0.549175C19.0256 0.197544 19.5025 0 19.9998 0C20.497 0 20.974 0.197544 21.3256 0.549175C21.6772 0.900805 21.8748 1.37772 21.8748 1.875ZM29.2373 23.0675C29.9498 23.405 31.0323 23.75 32.4998 23.75C33.9673 23.75 35.0498 23.405 35.7623 23.0675L32.4998 15.8175L29.2373 23.0675ZM4.23727 23.0675C4.94977 23.405 6.03227 23.75 7.49977 23.75C8.96727 23.75 10.0498 23.405 10.7623 23.0675L7.49977 15.8175L4.23727 23.0675Z" fill="white"/>
</svg>
