<svg width="38" height="28" viewBox="0 0 38 28" fill="none" xmlns="http://www.w3.org/2000/svg">
<path d="M20.667 7.33366C20.667 9.10177 19.9646 10.7975 18.7144 12.0477C17.4641 13.2979 15.7684 14.0003 14.0003 14.0003C12.2322 14.0003 10.5365 13.2979 9.28628 12.0477C8.03604 10.7975 7.33366 9.10177 7.33366 7.33366C7.33366 5.56555 8.03604 3.86986 9.28628 2.61961C10.5365 1.36937 12.2322 0.666992 14.0003 0.666992C15.7684 0.666992 17.4641 1.36937 18.7144 2.61961C19.9646 3.86986 20.667 5.56555 20.667 7.33366ZM27.3337 24.0003V27.3337H0.666992V24.0003C0.666992 20.317 6.63366 17.3337 14.0003 17.3337C21.367 17.3337 27.3337 20.317 27.3337 24.0003ZM33.167 18.167V20.667H30.667V18.167H33.167ZM29.8337 9.83366H27.3337V9.00033C27.3337 7.67424 27.8604 6.40247 28.7981 5.46479C29.7358 4.52711 31.0076 4.00033 32.3337 4.00033C33.6597 4.00033 34.9315 4.52711 35.8692 5.46479C36.8069 6.40247 37.3337 7.67424 37.3337 9.00033C37.3337 10.617 36.5003 12.1337 35.1837 13.017L34.6837 13.3337C33.7337 14.0003 33.167 15.017 33.167 16.167V16.5003H30.667V16.167C30.667 14.1837 31.667 12.3337 33.317 11.2503L33.8003 10.9337C34.4503 10.5003 34.8337 9.78366 34.8337 9.00033C34.8337 8.33728 34.5703 7.7014 34.1014 7.23256C33.6326 6.76372 32.9967 6.50033 32.3337 6.50033C31.6706 6.50033 31.0347 6.76372 30.5659 7.23256C30.0971 7.7014 29.8337 8.33728 29.8337 9.00033V9.83366Z" fill="white"/>
</svg>
