<svg width="19" height="32" viewBox="0 0 19 32" fill="none" xmlns="http://www.w3.org/2000/svg">
<path d="M6.75 21.6667C6.75 19.4167 6.95167 17.7983 7.355 16.8117C7.75722 15.8261 8.61111 14.75 9.91667 13.5833C11.0556 12.5833 11.9233 11.715 12.52 10.9783C13.1178 10.2428 13.4167 9.40278 13.4167 8.45833C13.4167 7.31944 13.035 6.375 12.2717 5.625C11.5072 4.875 10.4444 4.5 9.08333 4.5C7.66667 4.5 6.59 4.93056 5.85333 5.79167C5.11778 6.65278 4.59722 7.52778 4.29167 8.41667L0 6.58333C0.583333 4.80555 1.65278 3.26389 3.20833 1.95833C4.76389 0.652778 6.72222 0 9.08333 0C12 0 14.2433 0.812777 15.8133 2.43833C17.3822 4.06278 18.1667 6.01389 18.1667 8.29167C18.1667 9.68056 17.8683 10.8683 17.2717 11.855C16.6739 12.8406 15.7361 13.9583 14.4583 15.2083C13.0972 16.5139 12.2711 17.5067 11.98 18.1867C11.6878 18.8678 11.5417 20.0278 11.5417 21.6667H6.75ZM9.08333 31.6667C8.16667 31.6667 7.38222 31.3406 6.73 30.6883C6.07667 30.035 5.75 29.25 5.75 28.3333C5.75 27.4167 6.07667 26.6317 6.73 25.9783C7.38222 25.3261 8.16667 25 9.08333 25C10 25 10.785 25.3261 11.4383 25.9783C12.0906 26.6317 12.4167 27.4167 12.4167 28.3333C12.4167 29.25 12.0906 30.035 11.4383 30.6883C10.785 31.3406 10 31.6667 9.08333 31.6667Z" fill="white"/>
</svg>
