<svg width="36" height="36" viewBox="0 0 36 36" fill="none" xmlns="http://www.w3.org/2000/svg">
<path fill-rule="evenodd" clip-rule="evenodd" d="M18 34C26.837 34 34 26.837 34 18C34 9.163 26.837 2 18 2C9.163 2 2 9.163 2 18C2 26.837 9.163 34 18 34ZM18 36C27.941 36 36 27.941 36 18C36 8.059 27.941 0 18 0C8.059 0 0 8.059 0 18C0 27.941 8.059 36 18 36Z" fill="white"/>
<path fill-rule="evenodd" clip-rule="evenodd" d="M15.2859 15.2489C15.3929 15.6469 15.4319 16.0839 15.3019 16.4419C15.2766 16.5113 15.2363 16.5742 15.1839 16.6261C15.1314 16.678 15.0681 16.7177 14.9985 16.7422C14.929 16.7668 14.8548 16.7757 14.7814 16.7682C14.7079 16.7607 14.6371 16.737 14.5739 16.6989C14.3065 16.5304 14.0506 16.3443 13.8079 16.1419L13.6129 15.9819C13.4329 15.8359 13.2589 15.6939 13.0789 15.5589C12.5769 15.1839 12.1789 14.9859 11.8339 15.0029C11.4719 15.0209 11.0339 15.2739 10.4719 15.7179C10.3129 15.8429 10.1429 15.9849 9.96689 16.1329C9.57889 16.4569 9.15889 16.8079 8.75989 17.0639C8.68926 17.1094 8.6083 17.1364 8.5245 17.1423C8.4407 17.1482 8.35675 17.1329 8.28042 17.0979C8.20408 17.0628 8.13781 17.009 8.08773 16.9416C8.03766 16.8741 8.00538 16.7951 7.99389 16.7119C7.94389 16.3469 8.01989 15.8909 8.16289 15.4449C8.32609 14.9423 8.56011 14.4655 8.85789 14.0289C9.47789 13.1219 10.4839 12.2669 11.8309 12.3229C13.1309 12.3779 14.0949 13.1399 14.6749 13.9699C14.9669 14.3859 15.1739 14.8329 15.2859 15.2489ZM20.6299 15.2489C20.5219 15.6469 20.4829 16.0839 20.6129 16.4419C20.6381 16.5114 20.6785 16.5744 20.731 16.6265C20.7835 16.6785 20.8469 16.7182 20.9166 16.7428C20.9863 16.7674 21.0606 16.7762 21.1342 16.7686C21.2077 16.761 21.2787 16.7372 21.3419 16.6989C21.6039 16.5409 21.8629 16.3389 22.1069 16.1419L22.3029 15.9819C22.4829 15.8359 22.6569 15.6939 22.8369 15.5589C23.3379 15.1839 23.7369 14.9859 24.0809 15.0029C24.4439 15.0209 24.8809 15.2739 25.4439 15.7179C25.6019 15.8429 25.7719 15.9849 25.9489 16.1329C26.3359 16.4569 26.7559 16.8079 27.1559 17.0639C27.2265 17.1092 27.3074 17.1359 27.391 17.1417C27.4747 17.1476 27.5585 17.1322 27.6347 17.0972C27.7109 17.0621 27.777 17.0085 27.827 16.9411C27.877 16.8738 27.9093 16.795 27.9209 16.7119C27.9709 16.3469 27.8949 15.8909 27.7529 15.4449C27.5897 14.9423 27.3557 14.4655 27.0579 14.0289C26.4379 13.1219 25.4309 12.2669 24.0839 12.3229C22.7839 12.3779 21.8209 13.1399 21.2399 13.9699C20.9651 14.3583 20.7588 14.7909 20.6299 15.2489ZM17.9999 30.9999C13.9619 30.9999 10.4619 27.9519 8.74189 23.4999C8.72506 23.457 8.70839 23.414 8.69189 23.3709C8.24589 22.1799 9.19989 20.9999 10.4729 20.9999H25.5279C26.8009 20.9999 27.7559 22.1799 27.3079 23.3709C27.2917 23.414 27.2754 23.457 27.2589 23.4999C25.5379 27.9519 22.0379 30.9999 17.9999 30.9999ZM25.2759 23.0719C24.9759 23.7999 24.6269 24.4679 24.2409 25.0719H11.7589C11.4104 24.5249 11.1051 23.9515 10.8459 23.3569V23.0719H25.2759Z" fill="white"/>
<path fill-rule="evenodd" clip-rule="evenodd" d="M25.2715 27.072C25.4985 26.777 25.7155 26.469 25.9215 26.149C26.4806 25.2749 26.9449 24.3436 27.3065 23.371C27.6895 22.354 27.0485 21.344 26.0595 21.071C25.8859 21.0235 25.7066 20.9996 25.5265 21H10.4725C10.2924 20.9999 10.1131 21.0241 9.93953 21.072C9.48898 21.1935 9.0993 21.4774 8.84553 21.869C8.70326 22.0895 8.61523 22.3406 8.58863 22.6016C8.56204 22.8627 8.59764 23.1263 8.69253 23.371C8.7936 23.6368 8.90097 23.9003 9.01453 24.161C9.32453 24.866 9.68053 25.531 10.0775 26.149C10.2835 26.469 10.5005 26.777 10.7275 27.071C12.6015 29.502 15.1675 31 17.9995 31C20.8305 31 23.3975 29.502 25.2715 27.072ZM25.2755 23.072C24.9901 23.7678 24.6437 24.4371 24.2405 25.072H11.7585C11.41 24.525 11.1048 23.9516 10.8455 23.357V23.072H25.2755Z" fill="white"/>
</svg>
