<svg width="31" height="36" viewBox="0 0 31 36" fill="none" xmlns="http://www.w3.org/2000/svg">
<path d="M9.66634 16.667C7.89823 16.667 6.20254 15.9646 4.9523 14.7144C3.70205 13.4641 2.99967 11.7684 2.99967 10.0003V4.66699C2.99967 4.31337 3.14015 3.97423 3.3902 3.72418C3.64025 3.47413 3.97939 3.33366 4.33301 3.33366H5.66634C6.01996 3.33366 6.3591 3.19318 6.60915 2.94313C6.8592 2.69309 6.99967 2.35395 6.99967 2.00033C6.99967 1.6467 6.8592 1.30756 6.60915 1.05752C6.3591 0.807468 6.01996 0.666992 5.66634 0.666992H4.33301C3.27214 0.666992 2.25473 1.08842 1.50458 1.83857C0.754435 2.58871 0.333008 3.60613 0.333008 4.66699V10.0003C0.334722 11.5066 0.702037 12.99 1.40341 14.3231C2.10478 15.6562 3.11924 16.7991 4.35967 17.6537C5.55145 18.7044 6.51795 19.9857 7.20086 21.4202C7.88376 22.8548 8.26889 24.4128 8.33301 26.0003C8.33301 28.4757 9.31634 30.8496 11.0667 32.6C12.817 34.3503 15.191 35.3337 17.6663 35.3337C20.1417 35.3337 22.5157 34.3503 24.266 32.6C26.0163 30.8496 26.9997 28.4757 26.9997 26.0003V24.4803C28.2566 24.1558 29.3519 23.384 30.0805 22.3097C30.809 21.2353 31.1207 19.9321 30.9572 18.6443C30.7936 17.3566 30.166 16.1727 29.192 15.3146C28.218 14.4564 26.9644 13.983 25.6663 13.983C24.3682 13.983 23.1147 14.4564 22.1407 15.3146C21.1667 16.1727 20.5391 17.3566 20.3755 18.6443C20.212 19.9321 20.5237 21.2353 21.2522 22.3097C21.9808 23.384 23.0761 24.1558 24.333 24.4803V26.0003C24.333 27.7684 23.6306 29.4641 22.3804 30.7144C21.1301 31.9646 19.4345 32.667 17.6663 32.667C15.8982 32.667 14.2025 31.9646 12.9523 30.7144C11.7021 29.4641 10.9997 27.7684 10.9997 26.0003C11.0672 24.4109 11.4565 22.8516 12.144 21.4169C12.8315 19.9823 13.803 18.702 14.9997 17.6537C16.2352 16.7961 17.2445 15.6519 17.9411 14.319C18.6377 12.9861 19.0009 11.5043 18.9997 10.0003V4.66699C18.9997 3.60613 18.5782 2.58871 17.8281 1.83857C17.078 1.08842 16.0605 0.666992 14.9997 0.666992H13.6663C13.3127 0.666992 12.9736 0.807468 12.7235 1.05752C12.4735 1.30756 12.333 1.6467 12.333 2.00033C12.333 2.35395 12.4735 2.69309 12.7235 2.94313C12.9736 3.19318 13.3127 3.33366 13.6663 3.33366H14.9997C15.3533 3.33366 15.6924 3.47413 15.9425 3.72418C16.1925 3.97423 16.333 4.31337 16.333 4.66699V10.0003C16.333 10.8758 16.1606 11.7427 15.8255 12.5515C15.4905 13.3604 14.9994 14.0953 14.3804 14.7144C13.7613 15.3334 13.0264 15.8245 12.2176 16.1595C11.4087 16.4946 10.5418 16.667 9.66634 16.667ZM25.6663 22.0003C24.9591 22.0003 24.2808 21.7194 23.7807 21.2193C23.2806 20.7192 22.9997 20.0409 22.9997 19.3337C22.9997 18.6264 23.2806 17.9481 23.7807 17.448C24.2808 16.9479 24.9591 16.667 25.6663 16.667C26.3736 16.667 27.0519 16.9479 27.552 17.448C28.0521 17.9481 28.333 18.6264 28.333 19.3337C28.333 20.0409 28.0521 20.7192 27.552 21.2193C27.0519 21.7194 26.3736 22.0003 25.6663 22.0003Z" fill="white"/>
</svg>
